<svg width="316" height="109" viewBox="0 0 316 109" fill="none" xmlns="http://www.w3.org/2000/svg">
<g filter="url(#filter0_d_1_425)">
<rect x="8" y="13" width="300" height="84" rx="8" fill="#297C6B"/>
<path d="M158 4L169 13H147L158 4Z" fill="#297C6B"/>
</g>
<path d="M37.975 28.9L34.907 38H33.893L31.228 30.239L28.55 38H27.549L24.481 28.9H25.469L28.095 36.726L30.812 28.9H31.709L34.387 36.765L37.052 28.9H37.975ZM44.9773 34.867H39.2573C39.3093 35.5777 39.5823 36.154 40.0763 36.596C40.5703 37.0293 41.1943 37.246 41.9483 37.246C42.373 37.246 42.763 37.1723 43.1183 37.025C43.4737 36.869 43.7813 36.6437 44.0413 36.349L44.5613 36.947C44.258 37.311 43.8767 37.5883 43.4173 37.779C42.9667 37.9697 42.4683 38.065 41.9223 38.065C41.2203 38.065 40.5963 37.9177 40.0503 37.623C39.513 37.3197 39.0927 36.9037 38.7893 36.375C38.486 35.8463 38.3343 35.2483 38.3343 34.581C38.3343 33.9137 38.4773 33.3157 38.7633 32.787C39.058 32.2583 39.4567 31.8467 39.9593 31.552C40.4707 31.2573 41.0427 31.11 41.6753 31.11C42.308 31.11 42.8757 31.2573 43.3783 31.552C43.881 31.8467 44.2753 32.2583 44.5613 32.787C44.8473 33.307 44.9903 33.905 44.9903 34.581L44.9773 34.867ZM41.6753 31.903C41.0167 31.903 40.462 32.1153 40.0113 32.54C39.5693 32.956 39.318 33.502 39.2573 34.178H44.1063C44.0457 33.502 43.79 32.956 43.3393 32.54C42.8973 32.1153 42.3427 31.903 41.6753 31.903ZM46.9349 28.289C47.1343 28.289 47.2989 28.3583 47.4289 28.497C47.5589 28.627 47.6239 28.7917 47.6239 28.991C47.6239 29.095 47.6066 29.2077 47.5719 29.329C47.5459 29.4417 47.5069 29.576 47.4549 29.732L46.8959 31.526H46.2719L46.7269 29.654C46.5796 29.6107 46.4626 29.5327 46.3759 29.42C46.2893 29.2987 46.2459 29.1557 46.2459 28.991C46.2459 28.783 46.3109 28.614 46.4409 28.484C46.5709 28.354 46.7356 28.289 46.9349 28.289ZM50.4698 32.501C50.6865 32.0417 51.0072 31.695 51.4318 31.461C51.8652 31.227 52.3982 31.11 53.0308 31.11V32.007L52.8098 31.994C52.0905 31.994 51.5272 32.215 51.1198 32.657C50.7125 33.099 50.5088 33.7187 50.5088 34.516V38H49.5858V31.162H50.4698V32.501ZM60.5926 34.867H54.8726C54.9246 35.5777 55.1976 36.154 55.6916 36.596C56.1856 37.0293 56.8096 37.246 57.5636 37.246C57.9882 37.246 58.3782 37.1723 58.7336 37.025C59.0889 36.869 59.3966 36.6437 59.6566 36.349L60.1766 36.947C59.8732 37.311 59.4919 37.5883 59.0326 37.779C58.5819 37.9697 58.0836 38.065 57.5376 38.065C56.8356 38.065 56.2116 37.9177 55.6656 37.623C55.1282 37.3197 54.7079 36.9037 54.4046 36.375C54.1012 35.8463 53.9496 35.2483 53.9496 34.581C53.9496 33.9137 54.0926 33.3157 54.3786 32.787C54.6732 32.2583 55.0719 31.8467 55.5746 31.552C56.0859 31.2573 56.6579 31.11 57.2906 31.11C57.9232 31.11 58.4909 31.2573 58.9936 31.552C59.4962 31.8467 59.8906 32.2583 60.1766 32.787C60.4626 33.307 60.6056 33.905 60.6056 34.581L60.5926 34.867ZM57.2906 31.903C56.6319 31.903 56.0772 32.1153 55.6266 32.54C55.1846 32.956 54.9332 33.502 54.8726 34.178H59.7216C59.6609 33.502 59.4052 32.956 58.9546 32.54C58.5126 32.1153 57.9579 31.903 57.2906 31.903ZM71.8406 34.867H66.1206C66.1726 35.5777 66.4456 36.154 66.9396 36.596C67.4336 37.0293 68.0576 37.246 68.8116 37.246C69.2363 37.246 69.6263 37.1723 69.9816 37.025C70.3369 36.869 70.6446 36.6437 70.9046 36.349L71.4246 36.947C71.1213 37.311 70.7399 37.5883 70.2806 37.779C69.8299 37.9697 69.3316 38.065 68.7856 38.065C68.0836 38.065 67.4596 37.9177 66.9136 37.623C66.3763 37.3197 65.9559 36.9037 65.6526 36.375C65.3493 35.8463 65.1976 35.2483 65.1976 34.581C65.1976 33.9137 65.3406 33.3157 65.6266 32.787C65.9213 32.2583 66.3199 31.8467 66.8226 31.552C67.3339 31.2573 67.9059 31.11 68.5386 31.11C69.1713 31.11 69.7389 31.2573 70.2416 31.552C70.7443 31.8467 71.1386 32.2583 71.4246 32.787C71.7106 33.307 71.8536 33.905 71.8536 34.581L71.8406 34.867ZM68.5386 31.903C67.8799 31.903 67.3253 32.1153 66.8746 32.54C66.4326 32.956 66.1813 33.502 66.1206 34.178H70.9696C70.9089 33.502 70.6533 32.956 70.2026 32.54C69.7606 32.1153 69.2059 31.903 68.5386 31.903ZM77.8969 38L75.7259 35.14L73.5419 38H72.5019L75.2059 34.49L72.6319 31.162H73.6719L75.7259 33.84L77.7799 31.162H78.7939L76.2199 34.49L78.9499 38H77.8969ZM84.0092 31.11C84.6506 31.11 85.2312 31.2573 85.7512 31.552C86.2712 31.838 86.6786 32.2453 86.9732 32.774C87.2679 33.3027 87.4152 33.905 87.4152 34.581C87.4152 35.2657 87.2679 35.8723 86.9732 36.401C86.6786 36.9297 86.2712 37.3413 85.7512 37.636C85.2399 37.922 84.6592 38.065 84.0092 38.065C83.4546 38.065 82.9519 37.9523 82.5012 37.727C82.0592 37.493 81.6952 37.155 81.4092 36.713V40.522H80.4862V31.162H81.3702V32.514C81.6476 32.0633 82.0116 31.7167 82.4622 31.474C82.9216 31.2313 83.4372 31.11 84.0092 31.11ZM83.9442 37.246C84.4209 37.246 84.8542 37.1377 85.2442 36.921C85.6342 36.6957 85.9376 36.3793 86.1542 35.972C86.3796 35.5647 86.4922 35.101 86.4922 34.581C86.4922 34.061 86.3796 33.6017 86.1542 33.203C85.9376 32.7957 85.6342 32.4793 85.2442 32.254C84.8542 32.0287 84.4209 31.916 83.9442 31.916C83.4589 31.916 83.0212 32.0287 82.6312 32.254C82.2499 32.4793 81.9466 32.7957 81.7212 33.203C81.5046 33.6017 81.3962 34.061 81.3962 34.581C81.3962 35.101 81.5046 35.5647 81.7212 35.972C81.9466 36.3793 82.2499 36.6957 82.6312 36.921C83.0212 37.1377 83.4589 37.246 83.9442 37.246ZM95.2508 34.867H89.5308C89.5828 35.5777 89.8558 36.154 90.3498 36.596C90.8438 37.0293 91.4678 37.246 92.2218 37.246C92.6464 37.246 93.0364 37.1723 93.3918 37.025C93.7471 36.869 94.0548 36.6437 94.3148 36.349L94.8348 36.947C94.5314 37.311 94.1501 37.5883 93.6908 37.779C93.2401 37.9697 92.7418 38.065 92.1958 38.065C91.4938 38.065 90.8698 37.9177 90.3238 37.623C89.7864 37.3197 89.3661 36.9037 89.0628 36.375C88.7594 35.8463 88.6078 35.2483 88.6078 34.581C88.6078 33.9137 88.7508 33.3157 89.0368 32.787C89.3314 32.2583 89.7301 31.8467 90.2328 31.552C90.7441 31.2573 91.3161 31.11 91.9488 31.11C92.5814 31.11 93.1491 31.2573 93.6518 31.552C94.1544 31.8467 94.5488 32.2583 94.8348 32.787C95.1208 33.307 95.2638 33.905 95.2638 34.581L95.2508 34.867ZM91.9488 31.903C91.2901 31.903 90.7354 32.1153 90.2848 32.54C89.8428 32.956 89.5914 33.502 89.5308 34.178H94.3798C94.3191 33.502 94.0634 32.956 93.6128 32.54C93.1708 32.1153 92.6161 31.903 91.9488 31.903ZM98.0265 32.501C98.2431 32.0417 98.5638 31.695 98.9885 31.461C99.4218 31.227 99.9548 31.11 100.587 31.11V32.007L100.366 31.994C99.6471 31.994 99.0838 32.215 98.6765 32.657C98.2691 33.099 98.0655 33.7187 98.0655 34.516V38H97.1425V31.162H98.0265V32.501ZM102.259 31.162H103.182V38H102.259V31.162ZM102.727 29.667C102.536 29.667 102.376 29.602 102.246 29.472C102.116 29.342 102.051 29.186 102.051 29.004C102.051 28.8307 102.116 28.679 102.246 28.549C102.376 28.419 102.536 28.354 102.727 28.354C102.917 28.354 103.078 28.419 103.208 28.549C103.338 28.6703 103.403 28.8177 103.403 28.991C103.403 29.1817 103.338 29.342 103.208 29.472C103.078 29.602 102.917 29.667 102.727 29.667ZM111.704 34.867H105.984C106.036 35.5777 106.309 36.154 106.803 36.596C107.297 37.0293 107.921 37.246 108.675 37.246C109.1 37.246 109.49 37.1723 109.845 37.025C110.2 36.869 110.508 36.6437 110.768 36.349L111.288 36.947C110.985 37.311 110.603 37.5883 110.144 37.779C109.693 37.9697 109.195 38.065 108.649 38.065C107.947 38.065 107.323 37.9177 106.777 37.623C106.24 37.3197 105.819 36.9037 105.516 36.375C105.213 35.8463 105.061 35.2483 105.061 34.581C105.061 33.9137 105.204 33.3157 105.49 32.787C105.785 32.2583 106.183 31.8467 106.686 31.552C107.197 31.2573 107.769 31.11 108.402 31.11C109.035 31.11 109.602 31.2573 110.105 31.552C110.608 31.8467 111.002 32.2583 111.288 32.787C111.574 33.307 111.717 33.905 111.717 34.581L111.704 34.867ZM108.402 31.903C107.743 31.903 107.189 32.1153 106.738 32.54C106.296 32.956 106.045 33.502 105.984 34.178H110.833C110.772 33.502 110.517 32.956 110.066 32.54C109.624 32.1153 109.069 31.903 108.402 31.903ZM117.08 31.11C117.938 31.11 118.618 31.3613 119.121 31.864C119.632 32.358 119.888 33.0817 119.888 34.035V38H118.965V34.126C118.965 33.4153 118.787 32.8737 118.432 32.501C118.076 32.1283 117.569 31.942 116.911 31.942C116.174 31.942 115.589 32.163 115.156 32.605C114.731 33.0383 114.519 33.6407 114.519 34.412V38H113.596V31.162H114.48V32.423C114.731 32.007 115.078 31.6863 115.52 31.461C115.97 31.227 116.49 31.11 117.08 31.11ZM125.253 38.065C124.577 38.065 123.97 37.9177 123.433 37.623C122.904 37.3283 122.488 36.9167 122.185 36.388C121.882 35.8507 121.73 35.2483 121.73 34.581C121.73 33.9137 121.882 33.3157 122.185 32.787C122.488 32.2583 122.904 31.8467 123.433 31.552C123.97 31.2573 124.577 31.11 125.253 31.11C125.842 31.11 126.367 31.227 126.826 31.461C127.294 31.6863 127.662 32.02 127.931 32.462L127.242 32.93C127.017 32.592 126.731 32.3407 126.384 32.176C126.037 32.0027 125.66 31.916 125.253 31.916C124.759 31.916 124.313 32.0287 123.914 32.254C123.524 32.4707 123.216 32.7827 122.991 33.19C122.774 33.5973 122.666 34.061 122.666 34.581C122.666 35.1097 122.774 35.5777 122.991 35.985C123.216 36.3837 123.524 36.6957 123.914 36.921C124.313 37.1377 124.759 37.246 125.253 37.246C125.66 37.246 126.037 37.1637 126.384 36.999C126.731 36.8343 127.017 36.583 127.242 36.245L127.931 36.713C127.662 37.155 127.294 37.493 126.826 37.727C126.358 37.9523 125.834 38.065 125.253 38.065ZM135.584 34.867H129.864C129.916 35.5777 130.189 36.154 130.683 36.596C131.177 37.0293 131.801 37.246 132.555 37.246C132.979 37.246 133.369 37.1723 133.725 37.025C134.08 36.869 134.388 36.6437 134.648 36.349L135.168 36.947C134.864 37.311 134.483 37.5883 134.024 37.779C133.573 37.9697 133.075 38.065 132.529 38.065C131.827 38.065 131.203 37.9177 130.657 37.623C130.119 37.3197 129.699 36.9037 129.396 36.375C129.092 35.8463 128.941 35.2483 128.941 34.581C128.941 33.9137 129.084 33.3157 129.37 32.787C129.664 32.2583 130.063 31.8467 130.566 31.552C131.077 31.2573 131.649 31.11 132.282 31.11C132.914 31.11 133.482 31.2573 133.985 31.552C134.487 31.8467 134.882 32.2583 135.168 32.787C135.454 33.307 135.597 33.905 135.597 34.581L135.584 34.867ZM132.282 31.903C131.623 31.903 131.068 32.1153 130.618 32.54C130.176 32.956 129.924 33.502 129.864 34.178H134.713C134.652 33.502 134.396 32.956 133.946 32.54C133.504 32.1153 132.949 31.903 132.282 31.903ZM143.715 28.354V38H142.831V36.648C142.554 37.1073 142.186 37.4583 141.726 37.701C141.276 37.9437 140.764 38.065 140.192 38.065C139.551 38.065 138.97 37.9177 138.45 37.623C137.93 37.3283 137.523 36.9167 137.228 36.388C136.934 35.8593 136.786 35.257 136.786 34.581C136.786 33.905 136.934 33.3027 137.228 32.774C137.523 32.2453 137.93 31.838 138.45 31.552C138.97 31.2573 139.551 31.11 140.192 31.11C140.747 31.11 141.245 31.227 141.687 31.461C142.138 31.6863 142.506 32.02 142.792 32.462V28.354H143.715ZM140.27 37.246C140.747 37.246 141.176 37.1377 141.557 36.921C141.947 36.6957 142.251 36.3793 142.467 35.972C142.693 35.5647 142.805 35.101 142.805 34.581C142.805 34.061 142.693 33.5973 142.467 33.19C142.251 32.7827 141.947 32.4707 141.557 32.254C141.176 32.0287 140.747 31.916 140.27 31.916C139.785 31.916 139.347 32.0287 138.957 32.254C138.576 32.4707 138.273 32.7827 138.047 33.19C137.831 33.5973 137.722 34.061 137.722 34.581C137.722 35.101 137.831 35.5647 138.047 35.972C138.273 36.3793 138.576 36.6957 138.957 36.921C139.347 37.1377 139.785 37.246 140.27 37.246ZM149.688 31.162H150.611V38H149.688V31.162ZM150.156 29.667C149.966 29.667 149.805 29.602 149.675 29.472C149.545 29.342 149.48 29.186 149.48 29.004C149.48 28.8307 149.545 28.679 149.675 28.549C149.805 28.419 149.966 28.354 150.156 28.354C150.347 28.354 150.507 28.419 150.637 28.549C150.767 28.6703 150.832 28.8177 150.832 28.991C150.832 29.1817 150.767 29.342 150.637 29.472C150.507 29.602 150.347 29.667 150.156 29.667ZM156.664 31.11C157.522 31.11 158.202 31.3613 158.705 31.864C159.216 32.358 159.472 33.0817 159.472 34.035V38H158.549V34.126C158.549 33.4153 158.371 32.8737 158.016 32.501C157.66 32.1283 157.153 31.942 156.495 31.942C155.758 31.942 155.173 32.163 154.74 32.605C154.315 33.0383 154.103 33.6407 154.103 34.412V38H153.18V31.162H154.064V32.423C154.315 32.007 154.662 31.6863 155.104 31.461C155.554 31.227 156.074 31.11 156.664 31.11ZM168.175 38.065C167.516 38.065 166.922 37.9177 166.394 37.623C165.865 37.3197 165.449 36.9037 165.146 36.375C164.842 35.8463 164.691 35.2483 164.691 34.581C164.691 33.9137 164.842 33.3157 165.146 32.787C165.449 32.2583 165.865 31.8467 166.394 31.552C166.922 31.2573 167.516 31.11 168.175 31.11C168.833 31.11 169.427 31.2573 169.956 31.552C170.484 31.8467 170.896 32.2583 171.191 32.787C171.494 33.3157 171.646 33.9137 171.646 34.581C171.646 35.2483 171.494 35.8463 171.191 36.375C170.896 36.9037 170.484 37.3197 169.956 37.623C169.427 37.9177 168.833 38.065 168.175 38.065ZM168.175 37.246C168.66 37.246 169.093 37.1377 169.475 36.921C169.865 36.6957 170.168 36.3793 170.385 35.972C170.601 35.5647 170.71 35.101 170.71 34.581C170.71 34.061 170.601 33.5973 170.385 33.19C170.168 32.7827 169.865 32.4707 169.475 32.254C169.093 32.0287 168.66 31.916 168.175 31.916C167.689 31.916 167.252 32.0287 166.862 32.254C166.48 32.4707 166.177 32.7827 165.952 33.19C165.735 33.5973 165.627 34.061 165.627 34.581C165.627 35.101 165.735 35.5647 165.952 35.972C166.177 36.3793 166.48 36.6957 166.862 36.921C167.252 37.1377 167.689 37.246 168.175 37.246ZM179.692 31.162V38H178.808V36.752C178.565 37.168 178.232 37.493 177.807 37.727C177.382 37.9523 176.897 38.065 176.351 38.065C175.458 38.065 174.752 37.818 174.232 37.324C173.721 36.8213 173.465 36.089 173.465 35.127V31.162H174.388V35.036C174.388 35.7553 174.566 36.3013 174.921 36.674C175.276 37.0467 175.783 37.233 176.442 37.233C177.161 37.233 177.729 37.0163 178.145 36.583C178.561 36.141 178.769 35.53 178.769 34.75V31.162H179.692ZM183.161 32.501C183.378 32.0417 183.699 31.695 184.123 31.461C184.557 31.227 185.09 31.11 185.722 31.11V32.007L185.501 31.994C184.782 31.994 184.219 32.215 183.811 32.657C183.404 33.099 183.2 33.7187 183.2 34.516V38H182.277V31.162H183.161V32.501ZM190.897 31.162H191.82V38H190.897V31.162ZM191.365 29.667C191.175 29.667 191.014 29.602 190.884 29.472C190.754 29.342 190.689 29.186 190.689 29.004C190.689 28.8307 190.754 28.679 190.884 28.549C191.014 28.419 191.175 28.354 191.365 28.354C191.556 28.354 191.716 28.419 191.846 28.549C191.976 28.6703 192.041 28.8177 192.041 28.991C192.041 29.1817 191.976 29.342 191.846 29.472C191.716 29.602 191.556 29.667 191.365 29.667ZM197.873 31.11C198.731 31.11 199.411 31.3613 199.914 31.864C200.425 32.358 200.681 33.0817 200.681 34.035V38H199.758V34.126C199.758 33.4153 199.58 32.8737 199.225 32.501C198.869 32.1283 198.362 31.942 197.704 31.942C196.967 31.942 196.382 32.163 195.949 32.605C195.524 33.0383 195.312 33.6407 195.312 34.412V38H194.389V31.162H195.273V32.423C195.524 32.007 195.871 31.6863 196.313 31.461C196.763 31.227 197.283 31.11 197.873 31.11ZM209.452 28.354V38H208.568V36.648C208.29 37.1073 207.922 37.4583 207.463 37.701C207.012 37.9437 206.501 38.065 205.929 38.065C205.287 38.065 204.707 37.9177 204.187 37.623C203.667 37.3283 203.259 36.9167 202.965 36.388C202.67 35.8593 202.523 35.257 202.523 34.581C202.523 33.905 202.67 33.3027 202.965 32.774C203.259 32.2453 203.667 31.838 204.187 31.552C204.707 31.2573 205.287 31.11 205.929 31.11C206.483 31.11 206.982 31.227 207.424 31.461C207.874 31.6863 208.243 32.02 208.529 32.462V28.354H209.452ZM206.007 37.246C206.483 37.246 206.912 37.1377 207.294 36.921C207.684 36.6957 207.987 36.3793 208.204 35.972C208.429 35.5647 208.542 35.101 208.542 34.581C208.542 34.061 208.429 33.5973 208.204 33.19C207.987 32.7827 207.684 32.4707 207.294 32.254C206.912 32.0287 206.483 31.916 206.007 31.916C205.521 31.916 205.084 32.0287 204.694 32.254C204.312 32.4707 204.009 32.7827 203.784 33.19C203.567 33.5973 203.459 34.061 203.459 34.581C203.459 35.101 203.567 35.5647 203.784 35.972C204.009 36.3793 204.312 36.6957 204.694 36.921C205.084 37.1377 205.521 37.246 206.007 37.246ZM212.022 31.162H212.945V38H212.022V31.162ZM212.49 29.667C212.3 29.667 212.139 29.602 212.009 29.472C211.879 29.342 211.814 29.186 211.814 29.004C211.814 28.8307 211.879 28.679 212.009 28.549C212.139 28.419 212.3 28.354 212.49 28.354C212.681 28.354 212.841 28.419 212.971 28.549C213.101 28.6703 213.166 28.8177 213.166 28.991C213.166 29.1817 213.101 29.342 212.971 29.472C212.841 29.602 212.681 29.667 212.49 29.667ZM221.26 31.162L218.218 38H217.269L214.24 31.162H215.202L217.763 36.986L220.35 31.162H221.26ZM222.559 31.162H223.482V38H222.559V31.162ZM223.027 29.667C222.837 29.667 222.676 29.602 222.546 29.472C222.416 29.342 222.351 29.186 222.351 29.004C222.351 28.8307 222.416 28.679 222.546 28.549C222.676 28.419 222.837 28.354 223.027 28.354C223.218 28.354 223.378 28.419 223.508 28.549C223.638 28.6703 223.703 28.8177 223.703 28.991C223.703 29.1817 223.638 29.342 223.508 29.472C223.378 29.602 223.218 29.667 223.027 29.667ZM232.291 28.354V38H231.407V36.648C231.129 37.1073 230.761 37.4583 230.302 37.701C229.851 37.9437 229.34 38.065 228.768 38.065C228.126 38.065 227.546 37.9177 227.026 37.623C226.506 37.3283 226.098 36.9167 225.804 36.388C225.509 35.8593 225.362 35.257 225.362 34.581C225.362 33.905 225.509 33.3027 225.804 32.774C226.098 32.2453 226.506 31.838 227.026 31.552C227.546 31.2573 228.126 31.11 228.768 31.11C229.322 31.11 229.821 31.227 230.263 31.461C230.713 31.6863 231.082 32.02 231.368 32.462V28.354H232.291ZM228.846 37.246C229.322 37.246 229.751 37.1377 230.133 36.921C230.523 36.6957 230.826 36.3793 231.043 35.972C231.268 35.5647 231.381 35.101 231.381 34.581C231.381 34.061 231.268 33.5973 231.043 33.19C230.826 32.7827 230.523 32.4707 230.133 32.254C229.751 32.0287 229.322 31.916 228.846 31.916C228.36 31.916 227.923 32.0287 227.533 32.254C227.151 32.4707 226.848 32.7827 226.623 33.19C226.406 33.5973 226.298 34.061 226.298 34.581C226.298 35.101 226.406 35.5647 226.623 35.972C226.848 36.3793 227.151 36.6957 227.533 36.921C227.923 37.1377 228.36 37.246 228.846 37.246ZM241.023 31.162V38H240.139V36.752C239.897 37.168 239.563 37.493 239.138 37.727C238.714 37.9523 238.228 38.065 237.682 38.065C236.79 38.065 236.083 37.818 235.563 37.324C235.052 36.8213 234.796 36.089 234.796 35.127V31.162H235.719V35.036C235.719 35.7553 235.897 36.3013 236.252 36.674C236.608 37.0467 237.115 37.233 237.773 37.233C238.493 37.233 239.06 37.0163 239.476 36.583C239.892 36.141 240.1 35.53 240.1 34.75V31.162H241.023ZM246 31.11C246.893 31.11 247.578 31.3353 248.054 31.786C248.531 32.228 248.769 32.8867 248.769 33.762V38H247.885V36.934C247.677 37.2893 247.37 37.5667 246.962 37.766C246.564 37.9653 246.087 38.065 245.532 38.065C244.77 38.065 244.163 37.883 243.712 37.519C243.262 37.155 243.036 36.674 243.036 36.076C243.036 35.4953 243.244 35.0273 243.66 34.672C244.085 34.3167 244.757 34.139 245.675 34.139H247.846V33.723C247.846 33.1337 247.682 32.6873 247.352 32.384C247.023 32.072 246.542 31.916 245.909 31.916C245.476 31.916 245.06 31.9897 244.661 32.137C244.263 32.2757 243.92 32.4707 243.634 32.722L243.218 32.033C243.565 31.7383 243.981 31.513 244.466 31.357C244.952 31.1923 245.463 31.11 246 31.11ZM245.675 37.337C246.195 37.337 246.642 37.22 247.014 36.986C247.387 36.7433 247.664 36.3967 247.846 35.946V34.828H245.701C244.531 34.828 243.946 35.2353 243.946 36.05C243.946 36.4487 244.098 36.765 244.401 36.999C244.705 37.2243 245.129 37.337 245.675 37.337ZM251.276 28.354H252.199V38H251.276V28.354ZM28.121 58.065C27.445 58.065 26.8383 57.9177 26.301 57.623C25.7723 57.3283 25.3563 56.9167 25.053 56.388C24.7497 55.8507 24.598 55.2483 24.598 54.581C24.598 53.9137 24.7497 53.3157 25.053 52.787C25.3563 52.2583 25.7723 51.8467 26.301 51.552C26.8383 51.2573 27.445 51.11 28.121 51.11C28.7103 51.11 29.2347 51.227 29.694 51.461C30.162 51.6863 30.5303 52.02 30.799 52.462L30.11 52.93C29.8847 52.592 29.5987 52.3407 29.252 52.176C28.9053 52.0027 28.5283 51.916 28.121 51.916C27.627 51.916 27.1807 52.0287 26.782 52.254C26.392 52.4707 26.0843 52.7827 25.859 53.19C25.6423 53.5973 25.534 54.061 25.534 54.581C25.534 55.1097 25.6423 55.5777 25.859 55.985C26.0843 56.3837 26.392 56.6957 26.782 56.921C27.1807 57.1377 27.627 57.246 28.121 57.246C28.5283 57.246 28.9053 57.1637 29.252 56.999C29.5987 56.8343 29.8847 56.583 30.11 56.245L30.799 56.713C30.5303 57.155 30.162 57.493 29.694 57.727C29.226 57.9523 28.7017 58.065 28.121 58.065ZM33.4962 52.501C33.7129 52.0417 34.0335 51.695 34.4582 51.461C34.8915 51.227 35.4245 51.11 36.0572 51.11V52.007L35.8362 51.994C35.1169 51.994 34.5535 52.215 34.1462 52.657C33.7389 53.099 33.5352 53.7187 33.5352 54.516V58H32.6122V51.162H33.4962V52.501ZM40.1077 51.11C41.0004 51.11 41.685 51.3353 42.1617 51.786C42.6384 52.228 42.8767 52.8867 42.8767 53.762V58H41.9927V56.934C41.7847 57.2893 41.477 57.5667 41.0697 57.766C40.671 57.9653 40.1944 58.065 39.6397 58.065C38.877 58.065 38.2704 57.883 37.8197 57.519C37.369 57.155 37.1437 56.674 37.1437 56.076C37.1437 55.4953 37.3517 55.0273 37.7677 54.672C38.1924 54.3167 38.864 54.139 39.7827 54.139H41.9537V53.723C41.9537 53.1337 41.789 52.6873 41.4597 52.384C41.1304 52.072 40.6494 51.916 40.0167 51.916C39.5834 51.916 39.1674 51.9897 38.7687 52.137C38.37 52.2757 38.0277 52.4707 37.7417 52.722L37.3257 52.033C37.6724 51.7383 38.0884 51.513 38.5737 51.357C39.059 51.1923 39.5704 51.11 40.1077 51.11ZM39.7827 57.337C40.3027 57.337 40.749 57.22 41.1217 56.986C41.4944 56.7433 41.7717 56.3967 41.9537 55.946V54.828H39.8087C38.6387 54.828 38.0537 55.2353 38.0537 56.05C38.0537 56.4487 38.2054 56.765 38.5087 56.999C38.812 57.2243 39.2367 57.337 39.7827 57.337ZM47.6457 49.069C47.247 49.069 46.9437 49.1773 46.7357 49.394C46.5363 49.6107 46.4367 49.9313 46.4367 50.356V51.162H48.5427V51.942H46.4627V58H45.5397V51.942H44.3177V51.162H45.5397V50.317C45.5397 49.693 45.7173 49.199 46.0727 48.835C46.4367 48.471 46.948 48.289 47.6067 48.289C47.8667 48.289 48.118 48.328 48.3607 48.406C48.6033 48.4753 48.807 48.5793 48.9717 48.718L48.6597 49.407C48.391 49.1817 48.053 49.069 47.6457 49.069ZM53.39 57.584C53.2166 57.74 53 57.8613 52.74 57.948C52.4886 58.026 52.2243 58.065 51.947 58.065C51.3056 58.065 50.8116 57.8917 50.465 57.545C50.1183 57.1983 49.945 56.7087 49.945 56.076V51.942H48.723V51.162H49.945V49.667H50.868V51.162H52.948V51.942H50.868V56.024C50.868 56.4313 50.9676 56.7433 51.167 56.96C51.375 57.168 51.6696 57.272 52.051 57.272C52.2416 57.272 52.4236 57.2417 52.597 57.181C52.779 57.1203 52.935 57.0337 53.065 56.921L53.39 57.584ZM56.9032 58.065C56.3485 58.065 55.8155 57.987 55.3042 57.831C54.8015 57.6663 54.4072 57.4627 54.1212 57.22L54.5372 56.492C54.8232 56.7173 55.1829 56.9037 55.6162 57.051C56.0495 57.1897 56.5002 57.259 56.9682 57.259C57.5922 57.259 58.0515 57.1637 58.3462 56.973C58.6495 56.7737 58.8012 56.4963 58.8012 56.141C58.8012 55.8897 58.7189 55.6947 58.5542 55.556C58.3895 55.4087 58.1815 55.3003 57.9302 55.231C57.6789 55.153 57.3452 55.0793 56.9292 55.01C56.3745 54.906 55.9282 54.802 55.5902 54.698C55.2522 54.5853 54.9619 54.399 54.7192 54.139C54.4852 53.879 54.3682 53.5193 54.3682 53.06C54.3682 52.488 54.6065 52.02 55.0832 51.656C55.5599 51.292 56.2229 51.11 57.0722 51.11C57.5142 51.11 57.9562 51.1707 58.3982 51.292C58.8402 51.4047 59.2042 51.5563 59.4902 51.747L59.0872 52.488C58.5239 52.098 57.8522 51.903 57.0722 51.903C56.4829 51.903 56.0365 52.007 55.7332 52.215C55.4385 52.423 55.2912 52.696 55.2912 53.034C55.2912 53.294 55.3735 53.502 55.5382 53.658C55.7115 53.814 55.9239 53.931 56.1752 54.009C56.4265 54.0783 56.7732 54.152 57.2152 54.23C57.7612 54.334 58.1989 54.438 58.5282 54.542C58.8575 54.646 59.1392 54.8237 59.3732 55.075C59.6072 55.3263 59.7242 55.673 59.7242 56.115C59.7242 56.713 59.4729 57.1897 58.9702 57.545C58.4762 57.8917 57.7872 58.065 56.9032 58.065ZM67.2249 51.11C68.1176 51.11 68.8022 51.3353 69.2789 51.786C69.7556 52.228 69.9939 52.8867 69.9939 53.762V58H69.1099V56.934C68.9019 57.2893 68.5942 57.5667 68.1869 57.766C67.7882 57.9653 67.3116 58.065 66.7569 58.065C65.9942 58.065 65.3876 57.883 64.9369 57.519C64.4862 57.155 64.2609 56.674 64.2609 56.076C64.2609 55.4953 64.4689 55.0273 64.8849 54.672C65.3096 54.3167 65.9812 54.139 66.8999 54.139H69.0709V53.723C69.0709 53.1337 68.9062 52.6873 68.5769 52.384C68.2476 52.072 67.7666 51.916 67.1339 51.916C66.7006 51.916 66.2846 51.9897 65.8859 52.137C65.4872 52.2757 65.1449 52.4707 64.8589 52.722L64.4429 52.033C64.7896 51.7383 65.2056 51.513 65.6909 51.357C66.1762 51.1923 66.6876 51.11 67.2249 51.11ZM66.8999 57.337C67.4199 57.337 67.8662 57.22 68.2389 56.986C68.6116 56.7433 68.8889 56.3967 69.0709 55.946V54.828H66.9259C65.7559 54.828 65.1709 55.2353 65.1709 56.05C65.1709 56.4487 65.3226 56.765 65.6259 56.999C65.9292 57.2243 66.3539 57.337 66.8999 57.337ZM75.9849 51.11C76.8429 51.11 77.5232 51.3613 78.0259 51.864C78.5372 52.358 78.7929 53.0817 78.7929 54.035V58H77.8699V54.126C77.8699 53.4153 77.6922 52.8737 77.3369 52.501C76.9815 52.1283 76.4745 51.942 75.8159 51.942C75.0792 51.942 74.4942 52.163 74.0609 52.605C73.6362 53.0383 73.4239 53.6407 73.4239 54.412V58H72.5009V51.162H73.3849V52.423C73.6362 52.007 73.9829 51.6863 74.4249 51.461C74.8755 51.227 75.3955 51.11 75.9849 51.11ZM87.5641 48.354V58H86.6801V56.648C86.4028 57.1073 86.0344 57.4583 85.5751 57.701C85.1244 57.9437 84.6131 58.065 84.0411 58.065C83.3998 58.065 82.8191 57.9177 82.2991 57.623C81.7791 57.3283 81.3718 56.9167 81.0771 56.388C80.7824 55.8593 80.6351 55.257 80.6351 54.581C80.6351 53.905 80.7824 53.3027 81.0771 52.774C81.3718 52.2453 81.7791 51.838 82.2991 51.552C82.8191 51.2573 83.3998 51.11 84.0411 51.11C84.5958 51.11 85.0941 51.227 85.5361 51.461C85.9868 51.6863 86.3551 52.02 86.6411 52.462V48.354H87.5641ZM84.1191 57.246C84.5958 57.246 85.0248 57.1377 85.4061 56.921C85.7961 56.6957 86.0994 56.3793 86.3161 55.972C86.5414 55.5647 86.6541 55.101 86.6541 54.581C86.6541 54.061 86.5414 53.5973 86.3161 53.19C86.0994 52.7827 85.7961 52.4707 85.4061 52.254C85.0248 52.0287 84.5958 51.916 84.1191 51.916C83.6338 51.916 83.1961 52.0287 82.8061 52.254C82.4248 52.4707 82.1214 52.7827 81.8961 53.19C81.6794 53.5973 81.5711 54.061 81.5711 54.581C81.5711 55.101 81.6794 55.5647 81.8961 55.972C82.1214 56.3793 82.4248 56.6957 82.8061 56.921C83.1961 57.1377 83.6338 57.246 84.1191 57.246ZM99.699 51.162V58H98.815V56.752C98.5723 57.168 98.2387 57.493 97.814 57.727C97.3893 57.9523 96.904 58.065 96.358 58.065C95.4653 58.065 94.759 57.818 94.239 57.324C93.7277 56.8213 93.472 56.089 93.472 55.127V51.162H94.395V55.036C94.395 55.7553 94.5727 56.3013 94.928 56.674C95.2833 57.0467 95.7903 57.233 96.449 57.233C97.1683 57.233 97.736 57.0163 98.152 56.583C98.568 56.141 98.776 55.53 98.776 54.75V51.162H99.699ZM105.768 51.11C106.626 51.11 107.306 51.3613 107.809 51.864C108.32 52.358 108.576 53.0817 108.576 54.035V58H107.653V54.126C107.653 53.4153 107.475 52.8737 107.12 52.501C106.765 52.1283 106.258 51.942 105.599 51.942C104.862 51.942 104.277 52.163 103.844 52.605C103.419 53.0383 103.207 53.6407 103.207 54.412V58H102.284V51.162H103.168V52.423C103.419 52.007 103.766 51.6863 104.208 51.461C104.659 51.227 105.179 51.11 105.768 51.11ZM117.347 48.354V58H116.463V56.648C116.186 57.1073 115.818 57.4583 115.358 57.701C114.908 57.9437 114.396 58.065 113.824 58.065C113.183 58.065 112.602 57.9177 112.082 57.623C111.562 57.3283 111.155 56.9167 110.86 56.388C110.566 55.8593 110.418 55.257 110.418 54.581C110.418 53.905 110.566 53.3027 110.86 52.774C111.155 52.2453 111.562 51.838 112.082 51.552C112.602 51.2573 113.183 51.11 113.824 51.11C114.379 51.11 114.877 51.227 115.319 51.461C115.77 51.6863 116.138 52.02 116.424 52.462V48.354H117.347ZM113.902 57.246C114.379 57.246 114.808 57.1377 115.189 56.921C115.579 56.6957 115.883 56.3793 116.099 55.972C116.325 55.5647 116.437 55.101 116.437 54.581C116.437 54.061 116.325 53.5973 116.099 53.19C115.883 52.7827 115.579 52.4707 115.189 52.254C114.808 52.0287 114.379 51.916 113.902 51.916C113.417 51.916 112.979 52.0287 112.589 52.254C112.208 52.4707 111.905 52.7827 111.679 53.19C111.463 53.5973 111.354 54.061 111.354 54.581C111.354 55.101 111.463 55.5647 111.679 55.972C111.905 56.3793 112.208 56.6957 112.589 56.921C112.979 57.1377 113.417 57.246 113.902 57.246ZM125.872 54.867H120.152C120.204 55.5777 120.477 56.154 120.971 56.596C121.465 57.0293 122.089 57.246 122.843 57.246C123.268 57.246 123.658 57.1723 124.013 57.025C124.368 56.869 124.676 56.6437 124.936 56.349L125.456 56.947C125.153 57.311 124.771 57.5883 124.312 57.779C123.861 57.9697 123.363 58.065 122.817 58.065C122.115 58.065 121.491 57.9177 120.945 57.623C120.408 57.3197 119.987 56.9037 119.684 56.375C119.381 55.8463 119.229 55.2483 119.229 54.581C119.229 53.9137 119.372 53.3157 119.658 52.787C119.953 52.2583 120.351 51.8467 120.854 51.552C121.365 51.2573 121.937 51.11 122.57 51.11C123.203 51.11 123.77 51.2573 124.273 51.552C124.776 51.8467 125.17 52.2583 125.456 52.787C125.742 53.307 125.885 53.905 125.885 54.581L125.872 54.867ZM122.57 51.903C121.911 51.903 121.357 52.1153 120.906 52.54C120.464 52.956 120.213 53.502 120.152 54.178H125.001C124.94 53.502 124.685 52.956 124.234 52.54C123.792 52.1153 123.237 51.903 122.57 51.903ZM128.648 52.501C128.864 52.0417 129.185 51.695 129.61 51.461C130.043 51.227 130.576 51.11 131.209 51.11V52.007L130.988 51.994C130.268 51.994 129.705 52.215 129.298 52.657C128.89 53.099 128.687 53.7187 128.687 54.516V58H127.764V51.162H128.648V52.501ZM134.764 58.065C134.209 58.065 133.676 57.987 133.165 57.831C132.662 57.6663 132.268 57.4627 131.982 57.22L132.398 56.492C132.684 56.7173 133.043 56.9037 133.477 57.051C133.91 57.1897 134.361 57.259 134.829 57.259C135.453 57.259 135.912 57.1637 136.207 56.973C136.51 56.7737 136.662 56.4963 136.662 56.141C136.662 55.8897 136.579 55.6947 136.415 55.556C136.25 55.4087 136.042 55.3003 135.791 55.231C135.539 55.153 135.206 55.0793 134.79 55.01C134.235 54.906 133.789 54.802 133.451 54.698C133.113 54.5853 132.822 54.399 132.58 54.139C132.346 53.879 132.229 53.5193 132.229 53.06C132.229 52.488 132.467 52.02 132.944 51.656C133.42 51.292 134.083 51.11 134.933 51.11C135.375 51.11 135.817 51.1707 136.259 51.292C136.701 51.4047 137.065 51.5563 137.351 51.747L136.948 52.488C136.384 52.098 135.713 51.903 134.933 51.903C134.343 51.903 133.897 52.007 133.594 52.215C133.299 52.423 133.152 52.696 133.152 53.034C133.152 53.294 133.234 53.502 133.399 53.658C133.572 53.814 133.784 53.931 134.036 54.009C134.287 54.0783 134.634 54.152 135.076 54.23C135.622 54.334 136.059 54.438 136.389 54.542C136.718 54.646 137 54.8237 137.234 55.075C137.468 55.3263 137.585 55.673 137.585 56.115C137.585 56.713 137.333 57.1897 136.831 57.545C136.337 57.8917 135.648 58.065 134.764 58.065ZM142.892 57.584C142.719 57.74 142.502 57.8613 142.242 57.948C141.991 58.026 141.726 58.065 141.449 58.065C140.808 58.065 140.314 57.8917 139.967 57.545C139.62 57.1983 139.447 56.7087 139.447 56.076V51.942H138.225V51.162H139.447V49.667H140.37V51.162H142.45V51.942H140.37V56.024C140.37 56.4313 140.47 56.7433 140.669 56.96C140.877 57.168 141.172 57.272 141.553 57.272C141.744 57.272 141.926 57.2417 142.099 57.181C142.281 57.1203 142.437 57.0337 142.567 56.921L142.892 57.584ZM146.964 51.11C147.857 51.11 148.541 51.3353 149.018 51.786C149.495 52.228 149.733 52.8867 149.733 53.762V58H148.849V56.934C148.641 57.2893 148.333 57.5667 147.926 57.766C147.527 57.9653 147.051 58.065 146.496 58.065C145.733 58.065 145.127 57.883 144.676 57.519C144.225 57.155 144 56.674 144 56.076C144 55.4953 144.208 55.0273 144.624 54.672C145.049 54.3167 145.72 54.139 146.639 54.139H148.81V53.723C148.81 53.1337 148.645 52.6873 148.316 52.384C147.987 52.072 147.506 51.916 146.873 51.916C146.44 51.916 146.024 51.9897 145.625 52.137C145.226 52.2757 144.884 52.4707 144.598 52.722L144.182 52.033C144.529 51.7383 144.945 51.513 145.43 51.357C145.915 51.1923 146.427 51.11 146.964 51.11ZM146.639 57.337C147.159 57.337 147.605 57.22 147.978 56.986C148.351 56.7433 148.628 56.3967 148.81 55.946V54.828H146.665C145.495 54.828 144.91 55.2353 144.91 56.05C144.91 56.4487 145.062 56.765 145.365 56.999C145.668 57.2243 146.093 57.337 146.639 57.337ZM155.724 51.11C156.582 51.11 157.262 51.3613 157.765 51.864C158.276 52.358 158.532 53.0817 158.532 54.035V58H157.609V54.126C157.609 53.4153 157.431 52.8737 157.076 52.501C156.721 52.1283 156.214 51.942 155.555 51.942C154.818 51.942 154.233 52.163 153.8 52.605C153.375 53.0383 153.163 53.6407 153.163 54.412V58H152.24V51.162H153.124V52.423C153.375 52.007 153.722 51.6863 154.164 51.461C154.615 51.227 155.135 51.11 155.724 51.11ZM167.303 48.354V58H166.419V56.648C166.142 57.1073 165.774 57.4583 165.314 57.701C164.864 57.9437 164.352 58.065 163.78 58.065C163.139 58.065 162.558 57.9177 162.038 57.623C161.518 57.3283 161.111 56.9167 160.816 56.388C160.522 55.8593 160.374 55.257 160.374 54.581C160.374 53.905 160.522 53.3027 160.816 52.774C161.111 52.2453 161.518 51.838 162.038 51.552C162.558 51.2573 163.139 51.11 163.78 51.11C164.335 51.11 164.833 51.227 165.275 51.461C165.726 51.6863 166.094 52.02 166.38 52.462V48.354H167.303ZM163.858 57.246C164.335 57.246 164.764 57.1377 165.145 56.921C165.535 56.6957 165.839 56.3793 166.055 55.972C166.281 55.5647 166.393 55.101 166.393 54.581C166.393 54.061 166.281 53.5973 166.055 53.19C165.839 52.7827 165.535 52.4707 165.145 52.254C164.764 52.0287 164.335 51.916 163.858 51.916C163.373 51.916 162.935 52.0287 162.545 52.254C162.164 52.4707 161.861 52.7827 161.635 53.19C161.419 53.5973 161.31 54.061 161.31 54.581C161.31 55.101 161.419 55.5647 161.635 55.972C161.861 56.3793 162.164 56.6957 162.545 56.921C162.935 57.1377 163.373 57.246 163.858 57.246ZM176.76 51.11C177.618 51.11 178.299 51.3613 178.801 51.864C179.313 52.358 179.568 53.0817 179.568 54.035V58H178.645V54.126C178.645 53.4153 178.468 52.8737 178.112 52.501C177.757 52.1283 177.25 51.942 176.591 51.942C175.855 51.942 175.27 52.163 174.836 52.605C174.412 53.0383 174.199 53.6407 174.199 54.412V58H173.276V48.354H174.199V52.358C174.451 51.9593 174.797 51.6517 175.239 51.435C175.681 51.2183 176.188 51.11 176.76 51.11ZM184.895 58.065C184.236 58.065 183.642 57.9177 183.114 57.623C182.585 57.3197 182.169 56.9037 181.866 56.375C181.562 55.8463 181.411 55.2483 181.411 54.581C181.411 53.9137 181.562 53.3157 181.866 52.787C182.169 52.2583 182.585 51.8467 183.114 51.552C183.642 51.2573 184.236 51.11 184.895 51.11C185.553 51.11 186.147 51.2573 186.676 51.552C187.204 51.8467 187.616 52.2583 187.911 52.787C188.214 53.3157 188.366 53.9137 188.366 54.581C188.366 55.2483 188.214 55.8463 187.911 56.375C187.616 56.9037 187.204 57.3197 186.676 57.623C186.147 57.9177 185.553 58.065 184.895 58.065ZM184.895 57.246C185.38 57.246 185.813 57.1377 186.195 56.921C186.585 56.6957 186.888 56.3793 187.105 55.972C187.321 55.5647 187.43 55.101 187.43 54.581C187.43 54.061 187.321 53.5973 187.105 53.19C186.888 52.7827 186.585 52.4707 186.195 52.254C185.813 52.0287 185.38 51.916 184.895 51.916C184.409 51.916 183.972 52.0287 183.582 52.254C183.2 52.4707 182.897 52.7827 182.672 53.19C182.455 53.5973 182.347 54.061 182.347 54.581C182.347 55.101 182.455 55.5647 182.672 55.972C182.897 56.3793 183.2 56.6957 183.582 56.921C183.972 57.1377 184.409 57.246 184.895 57.246ZM200.095 51.162L197.508 58H196.637L194.479 52.397L192.321 58H191.45L188.876 51.162H189.76L191.905 56.973L194.102 51.162H194.895L197.079 56.973L199.25 51.162H200.095ZM210.842 54.867H205.122C205.174 55.5777 205.447 56.154 205.941 56.596C206.435 57.0293 207.059 57.246 207.813 57.246C208.237 57.246 208.627 57.1723 208.983 57.025C209.338 56.869 209.646 56.6437 209.906 56.349L210.426 56.947C210.122 57.311 209.741 57.5883 209.282 57.779C208.831 57.9697 208.333 58.065 207.787 58.065C207.085 58.065 206.461 57.9177 205.915 57.623C205.377 57.3197 204.957 56.9037 204.654 56.375C204.35 55.8463 204.199 55.2483 204.199 54.581C204.199 53.9137 204.342 53.3157 204.628 52.787C204.922 52.2583 205.321 51.8467 205.824 51.552C206.335 51.2573 206.907 51.11 207.54 51.11C208.172 51.11 208.74 51.2573 209.243 51.552C209.745 51.8467 210.14 52.2583 210.426 52.787C210.712 53.307 210.855 53.905 210.855 54.581L210.842 54.867ZM207.54 51.903C206.881 51.903 206.326 52.1153 205.876 52.54C205.434 52.956 205.182 53.502 205.122 54.178H209.971C209.91 53.502 209.654 52.956 209.204 52.54C208.762 52.1153 208.207 51.903 207.54 51.903ZM214.935 51.11C215.828 51.11 216.512 51.3353 216.989 51.786C217.466 52.228 217.704 52.8867 217.704 53.762V58H216.82V56.934C216.612 57.2893 216.304 57.5667 215.897 57.766C215.498 57.9653 215.022 58.065 214.467 58.065C213.704 58.065 213.098 57.883 212.647 57.519C212.196 57.155 211.971 56.674 211.971 56.076C211.971 55.4953 212.179 55.0273 212.595 54.672C213.02 54.3167 213.691 54.139 214.61 54.139H216.781V53.723C216.781 53.1337 216.616 52.6873 216.287 52.384C215.958 52.072 215.477 51.916 214.844 51.916C214.411 51.916 213.995 51.9897 213.596 52.137C213.197 52.2757 212.855 52.4707 212.569 52.722L212.153 52.033C212.5 51.7383 212.916 51.513 213.401 51.357C213.886 51.1923 214.398 51.11 214.935 51.11ZM214.61 57.337C215.13 57.337 215.576 57.22 215.949 56.986C216.322 56.7433 216.599 56.3967 216.781 55.946V54.828H214.636C213.466 54.828 212.881 55.2353 212.881 56.05C212.881 56.4487 213.033 56.765 213.336 56.999C213.639 57.2243 214.064 57.337 214.61 57.337ZM223.07 58.065C222.394 58.065 221.788 57.9177 221.25 57.623C220.722 57.3283 220.306 56.9167 220.002 56.388C219.699 55.8507 219.547 55.2483 219.547 54.581C219.547 53.9137 219.699 53.3157 220.002 52.787C220.306 52.2583 220.722 51.8467 221.25 51.552C221.788 51.2573 222.394 51.11 223.07 51.11C223.66 51.11 224.184 51.227 224.643 51.461C225.111 51.6863 225.48 52.02 225.748 52.462L225.059 52.93C224.834 52.592 224.548 52.3407 224.201 52.176C223.855 52.0027 223.478 51.916 223.07 51.916C222.576 51.916 222.13 52.0287 221.731 52.254C221.341 52.4707 221.034 52.7827 220.808 53.19C220.592 53.5973 220.483 54.061 220.483 54.581C220.483 55.1097 220.592 55.5777 220.808 55.985C221.034 56.3837 221.341 56.6957 221.731 56.921C222.13 57.1377 222.576 57.246 223.07 57.246C223.478 57.246 223.855 57.1637 224.201 56.999C224.548 56.8343 224.834 56.583 225.059 56.245L225.748 56.713C225.48 57.155 225.111 57.493 224.643 57.727C224.175 57.9523 223.651 58.065 223.07 58.065ZM230.944 51.11C231.802 51.11 232.482 51.3613 232.985 51.864C233.496 52.358 233.752 53.0817 233.752 54.035V58H232.829V54.126C232.829 53.4153 232.651 52.8737 232.296 52.501C231.941 52.1283 231.434 51.942 230.775 51.942C230.038 51.942 229.453 52.163 229.02 52.605C228.595 53.0383 228.383 53.6407 228.383 54.412V58H227.46V48.354H228.383V52.358C228.634 51.9593 228.981 51.6517 229.423 51.435C229.865 51.2183 230.372 51.11 230.944 51.11ZM242.455 58.065C241.796 58.065 241.203 57.9177 240.674 57.623C240.145 57.3197 239.729 56.9037 239.426 56.375C239.123 55.8463 238.971 55.2483 238.971 54.581C238.971 53.9137 239.123 53.3157 239.426 52.787C239.729 52.2583 240.145 51.8467 240.674 51.552C241.203 51.2573 241.796 51.11 242.455 51.11C243.114 51.11 243.707 51.2573 244.236 51.552C244.765 51.8467 245.176 52.2583 245.471 52.787C245.774 53.3157 245.926 53.9137 245.926 54.581C245.926 55.2483 245.774 55.8463 245.471 56.375C245.176 56.9037 244.765 57.3197 244.236 57.623C243.707 57.9177 243.114 58.065 242.455 58.065ZM242.455 57.246C242.94 57.246 243.374 57.1377 243.755 56.921C244.145 56.6957 244.448 56.3793 244.665 55.972C244.882 55.5647 244.99 55.101 244.99 54.581C244.99 54.061 244.882 53.5973 244.665 53.19C244.448 52.7827 244.145 52.4707 243.755 52.254C243.374 52.0287 242.94 51.916 242.455 51.916C241.97 51.916 241.532 52.0287 241.142 52.254C240.761 52.4707 240.457 52.7827 240.232 53.19C240.015 53.5973 239.907 54.061 239.907 54.581C239.907 55.101 240.015 55.5647 240.232 55.972C240.457 56.3793 240.761 56.6957 241.142 56.921C241.532 57.1377 241.97 57.246 242.455 57.246ZM251.294 51.11C252.152 51.11 252.833 51.3613 253.335 51.864C253.847 52.358 254.102 53.0817 254.102 54.035V58H253.179V54.126C253.179 53.4153 253.002 52.8737 252.646 52.501C252.291 52.1283 251.784 51.942 251.125 51.942C250.389 51.942 249.804 52.163 249.37 52.605C248.946 53.0383 248.733 53.6407 248.733 54.412V58H247.81V51.162H248.694V52.423C248.946 52.007 249.292 51.6863 249.734 51.461C250.185 51.227 250.705 51.11 251.294 51.11ZM262.588 54.867H256.868C256.92 55.5777 257.193 56.154 257.687 56.596C258.181 57.0293 258.805 57.246 259.559 57.246C259.983 57.246 260.373 57.1723 260.729 57.025C261.084 56.869 261.392 56.6437 261.652 56.349L262.172 56.947C261.868 57.311 261.487 57.5883 261.028 57.779C260.577 57.9697 260.079 58.065 259.533 58.065C258.831 58.065 258.207 57.9177 257.661 57.623C257.123 57.3197 256.703 56.9037 256.4 56.375C256.096 55.8463 255.945 55.2483 255.945 54.581C255.945 53.9137 256.088 53.3157 256.374 52.787C256.668 52.2583 257.067 51.8467 257.57 51.552C258.081 51.2573 258.653 51.11 259.286 51.11C259.918 51.11 260.486 51.2573 260.989 51.552C261.491 51.8467 261.886 52.2583 262.172 52.787C262.458 53.307 262.601 53.905 262.601 54.581L262.588 54.867ZM259.286 51.903C258.627 51.903 258.072 52.1153 257.622 52.54C257.18 52.956 256.928 53.502 256.868 54.178H261.717C261.656 53.502 261.4 52.956 260.95 52.54C260.508 52.1153 259.953 51.903 259.286 51.903ZM270.677 58.065C270.018 58.065 269.424 57.9177 268.896 57.623C268.367 57.3197 267.951 56.9037 267.648 56.375C267.344 55.8463 267.193 55.2483 267.193 54.581C267.193 53.9137 267.344 53.3157 267.648 52.787C267.951 52.2583 268.367 51.8467 268.896 51.552C269.424 51.2573 270.018 51.11 270.677 51.11C271.335 51.11 271.929 51.2573 272.458 51.552C272.986 51.8467 273.398 52.2583 273.693 52.787C273.996 53.3157 274.148 53.9137 274.148 54.581C274.148 55.2483 273.996 55.8463 273.693 56.375C273.398 56.9037 272.986 57.3197 272.458 57.623C271.929 57.9177 271.335 58.065 270.677 58.065ZM270.677 57.246C271.162 57.246 271.595 57.1377 271.977 56.921C272.367 56.6957 272.67 56.3793 272.887 55.972C273.103 55.5647 273.212 55.101 273.212 54.581C273.212 54.061 273.103 53.5973 272.887 53.19C272.67 52.7827 272.367 52.4707 271.977 52.254C271.595 52.0287 271.162 51.916 270.677 51.916C270.191 51.916 269.754 52.0287 269.364 52.254C268.982 52.4707 268.679 52.7827 268.454 53.19C268.237 53.5973 268.129 54.061 268.129 54.581C268.129 55.101 268.237 55.5647 268.454 55.972C268.679 56.3793 268.982 56.6957 269.364 56.921C269.754 57.1377 270.191 57.246 270.677 57.246ZM278.294 49.069C277.895 49.069 277.592 49.1773 277.384 49.394C277.185 49.6107 277.085 49.9313 277.085 50.356V51.162H279.191V51.942H277.111V58H276.188V51.942H274.966V51.162H276.188V50.317C276.188 49.693 276.366 49.199 276.721 48.835C277.085 48.471 277.596 48.289 278.255 48.289C278.515 48.289 278.766 48.328 279.009 48.406C279.252 48.4753 279.455 48.5793 279.62 48.718L279.308 49.407C279.039 49.1817 278.701 49.069 278.294 49.069ZM28.082 78.065C27.4233 78.065 26.8297 77.9177 26.301 77.623C25.7723 77.3197 25.3563 76.9037 25.053 76.375C24.7497 75.8463 24.598 75.2483 24.598 74.581C24.598 73.9137 24.7497 73.3157 25.053 72.787C25.3563 72.2583 25.7723 71.8467 26.301 71.552C26.8297 71.2573 27.4233 71.11 28.082 71.11C28.7407 71.11 29.3343 71.2573 29.863 71.552C30.3917 71.8467 30.8033 72.2583 31.098 72.787C31.4013 73.3157 31.553 73.9137 31.553 74.581C31.553 75.2483 31.4013 75.8463 31.098 76.375C30.8033 76.9037 30.3917 77.3197 29.863 77.623C29.3343 77.9177 28.7407 78.065 28.082 78.065ZM28.082 77.246C28.5673 77.246 29.0007 77.1377 29.382 76.921C29.772 76.6957 30.0753 76.3793 30.292 75.972C30.5087 75.5647 30.617 75.101 30.617 74.581C30.617 74.061 30.5087 73.5973 30.292 73.19C30.0753 72.7827 29.772 72.4707 29.382 72.254C29.0007 72.0287 28.5673 71.916 28.082 71.916C27.5967 71.916 27.159 72.0287 26.769 72.254C26.3877 72.4707 26.0843 72.7827 25.859 73.19C25.6423 73.5973 25.534 74.061 25.534 74.581C25.534 75.101 25.6423 75.5647 25.859 75.972C26.0843 76.3793 26.3877 76.6957 26.769 76.921C27.159 77.1377 27.5967 77.246 28.082 77.246ZM39.5994 71.162V78H38.7154V76.752C38.4727 77.168 38.1391 77.493 37.7144 77.727C37.2897 77.9523 36.8044 78.065 36.2584 78.065C35.3657 78.065 34.6594 77.818 34.1394 77.324C33.6281 76.8213 33.3724 76.089 33.3724 75.127V71.162H34.2954V75.036C34.2954 75.7553 34.4731 76.3013 34.8284 76.674C35.1837 77.0467 35.6907 77.233 36.3494 77.233C37.0687 77.233 37.6364 77.0163 38.0524 76.583C38.4684 76.141 38.6764 75.53 38.6764 74.75V71.162H39.5994ZM43.0685 72.501C43.2851 72.0417 43.6058 71.695 44.0305 71.461C44.4638 71.227 44.9968 71.11 45.6295 71.11V72.007L45.4085 71.994C44.6891 71.994 44.1258 72.215 43.7185 72.657C43.3111 73.099 43.1075 73.7187 43.1075 74.516V78H42.1845V71.162H43.0685V72.501ZM51.6886 72.501C51.9052 72.0417 52.2259 71.695 52.6506 71.461C53.0839 71.227 53.6169 71.11 54.2496 71.11V72.007L54.0286 71.994C53.3092 71.994 52.7459 72.215 52.3386 72.657C51.9312 73.099 51.7276 73.7187 51.7276 74.516V78H50.8046V71.162H51.6886V72.501ZM58.6523 78.065C57.9936 78.065 57.4 77.9177 56.8713 77.623C56.3426 77.3197 55.9266 76.9037 55.6233 76.375C55.32 75.8463 55.1683 75.2483 55.1683 74.581C55.1683 73.9137 55.32 73.3157 55.6233 72.787C55.9266 72.2583 56.3426 71.8467 56.8713 71.552C57.4 71.2573 57.9936 71.11 58.6523 71.11C59.311 71.11 59.9046 71.2573 60.4333 71.552C60.962 71.8467 61.3736 72.2583 61.6683 72.787C61.9716 73.3157 62.1233 73.9137 62.1233 74.581C62.1233 75.2483 61.9716 75.8463 61.6683 76.375C61.3736 76.9037 60.962 77.3197 60.4333 77.623C59.9046 77.9177 59.311 78.065 58.6523 78.065ZM58.6523 77.246C59.1376 77.246 59.571 77.1377 59.9523 76.921C60.3423 76.6957 60.6456 76.3793 60.8623 75.972C61.079 75.5647 61.1873 75.101 61.1873 74.581C61.1873 74.061 61.079 73.5973 60.8623 73.19C60.6456 72.7827 60.3423 72.4707 59.9523 72.254C59.571 72.0287 59.1376 71.916 58.6523 71.916C58.167 71.916 57.7293 72.0287 57.3393 72.254C56.958 72.4707 56.6546 72.7827 56.4293 73.19C56.2126 73.5973 56.1043 74.061 56.1043 74.581C56.1043 75.101 56.2126 75.5647 56.4293 75.972C56.6546 76.3793 56.958 76.6957 57.3393 76.921C57.7293 77.1377 58.167 77.246 58.6523 77.246ZM64.0077 68.354H64.9307V78H64.0077V68.354ZM73.4529 74.867H67.7329C67.7849 75.5777 68.0579 76.154 68.5519 76.596C69.0459 77.0293 69.6699 77.246 70.4239 77.246C70.8486 77.246 71.2386 77.1723 71.5939 77.025C71.9492 76.869 72.2569 76.6437 72.5169 76.349L73.0369 76.947C72.7336 77.311 72.3522 77.5883 71.8929 77.779C71.4422 77.9697 70.9439 78.065 70.3979 78.065C69.6959 78.065 69.0719 77.9177 68.5259 77.623C67.9886 77.3197 67.5682 76.9037 67.2649 76.375C66.9616 75.8463 66.8099 75.2483 66.8099 74.581C66.8099 73.9137 66.9529 73.3157 67.2389 72.787C67.5336 72.2583 67.9322 71.8467 68.4349 71.552C68.9462 71.2573 69.5182 71.11 70.1509 71.11C70.7836 71.11 71.3512 71.2573 71.8539 71.552C72.3566 71.8467 72.7509 72.2583 73.0369 72.787C73.3229 73.307 73.4659 73.905 73.4659 74.581L73.4529 74.867ZM70.1509 71.903C69.4922 71.903 68.9376 72.1153 68.4869 72.54C68.0449 72.956 67.7936 73.502 67.7329 74.178H72.5819C72.5212 73.502 72.2656 72.956 71.8149 72.54C71.3729 72.1153 70.8182 71.903 70.1509 71.903ZM77.1776 78.065C76.623 78.065 76.09 77.987 75.5786 77.831C75.076 77.6663 74.6816 77.4627 74.3956 77.22L74.8116 76.492C75.0976 76.7173 75.4573 76.9037 75.8906 77.051C76.324 77.1897 76.7746 77.259 77.2426 77.259C77.8666 77.259 78.326 77.1637 78.6206 76.973C78.924 76.7737 79.0756 76.4963 79.0756 76.141C79.0756 75.8897 78.9933 75.6947 78.8286 75.556C78.664 75.4087 78.456 75.3003 78.2046 75.231C77.9533 75.153 77.6196 75.0793 77.2036 75.01C76.649 74.906 76.2026 74.802 75.8646 74.698C75.5266 74.5853 75.2363 74.399 74.9936 74.139C74.7596 73.879 74.6426 73.5193 74.6426 73.06C74.6426 72.488 74.881 72.02 75.3576 71.656C75.8343 71.292 76.4973 71.11 77.3466 71.11C77.7886 71.11 78.2306 71.1707 78.6726 71.292C79.1146 71.4047 79.4786 71.5563 79.7646 71.747L79.3616 72.488C78.7983 72.098 78.1266 71.903 77.3466 71.903C76.7573 71.903 76.311 72.007 76.0076 72.215C75.713 72.423 75.5656 72.696 75.5656 73.034C75.5656 73.294 75.648 73.502 75.8126 73.658C75.986 73.814 76.1983 73.931 76.4496 74.009C76.701 74.0783 77.0476 74.152 77.4896 74.23C78.0356 74.334 78.4733 74.438 78.8026 74.542C79.132 74.646 79.4136 74.8237 79.6476 75.075C79.8816 75.3263 79.9986 75.673 79.9986 76.115C79.9986 76.713 79.7473 77.1897 79.2446 77.545C78.7506 77.8917 78.0616 78.065 77.1776 78.065ZM85.1073 71.162H86.0303V78H85.1073V71.162ZM85.5753 69.667C85.3846 69.667 85.2243 69.602 85.0943 69.472C84.9643 69.342 84.8993 69.186 84.8993 69.004C84.8993 68.8307 84.9643 68.679 85.0943 68.549C85.2243 68.419 85.3846 68.354 85.5753 68.354C85.766 68.354 85.9263 68.419 86.0563 68.549C86.1863 68.6703 86.2513 68.8177 86.2513 68.991C86.2513 69.1817 86.1863 69.342 86.0563 69.472C85.9263 69.602 85.766 69.667 85.5753 69.667ZM97.1265 71.11C97.9845 71.11 98.6562 71.357 99.1415 71.851C99.6355 72.345 99.8825 73.073 99.8825 74.035V78H98.9595V74.126C98.9595 73.4153 98.7862 72.8737 98.4395 72.501C98.1015 72.1283 97.6205 71.942 96.9965 71.942C96.2859 71.942 95.7269 72.163 95.3195 72.605C94.9122 73.0383 94.7085 73.6407 94.7085 74.412V78H93.7855V74.126C93.7855 73.4153 93.6122 72.8737 93.2655 72.501C92.9275 72.1283 92.4422 71.942 91.8095 71.942C91.1075 71.942 90.5485 72.163 90.1325 72.605C89.7252 73.0383 89.5215 73.6407 89.5215 74.412V78H88.5985V71.162H89.4825V72.41C89.7252 71.994 90.0632 71.6733 90.4965 71.448C90.9299 71.2227 91.4282 71.11 91.9915 71.11C92.5635 71.11 93.0575 71.2313 93.4735 71.474C93.8982 71.7167 94.2145 72.0763 94.4225 72.553C94.6739 72.1023 95.0335 71.7513 95.5015 71.5C95.9782 71.24 96.5199 71.11 97.1265 71.11ZM105.909 71.11C106.55 71.11 107.131 71.2573 107.651 71.552C108.171 71.838 108.578 72.2453 108.873 72.774C109.167 73.3027 109.315 73.905 109.315 74.581C109.315 75.2657 109.167 75.8723 108.873 76.401C108.578 76.9297 108.171 77.3413 107.651 77.636C107.139 77.922 106.559 78.065 105.909 78.065C105.354 78.065 104.851 77.9523 104.401 77.727C103.959 77.493 103.595 77.155 103.309 76.713V80.522H102.386V71.162H103.27V72.514C103.547 72.0633 103.911 71.7167 104.362 71.474C104.821 71.2313 105.337 71.11 105.909 71.11ZM105.844 77.246C106.32 77.246 106.754 77.1377 107.144 76.921C107.534 76.6957 107.837 76.3793 108.054 75.972C108.279 75.5647 108.392 75.101 108.392 74.581C108.392 74.061 108.279 73.6017 108.054 73.203C107.837 72.7957 107.534 72.4793 107.144 72.254C106.754 72.0287 106.32 71.916 105.844 71.916C105.358 71.916 104.921 72.0287 104.531 72.254C104.149 72.4793 103.846 72.7957 103.621 73.203C103.404 73.6017 103.296 74.061 103.296 74.581C103.296 75.101 103.404 75.5647 103.621 75.972C103.846 76.3793 104.149 76.6957 104.531 76.921C104.921 77.1377 105.358 77.246 105.844 77.246ZM113.55 71.11C114.443 71.11 115.127 71.3353 115.604 71.786C116.081 72.228 116.319 72.8867 116.319 73.762V78H115.435V76.934C115.227 77.2893 114.919 77.5667 114.512 77.766C114.113 77.9653 113.637 78.065 113.082 78.065C112.319 78.065 111.713 77.883 111.262 77.519C110.811 77.155 110.586 76.674 110.586 76.076C110.586 75.4953 110.794 75.0273 111.21 74.672C111.635 74.3167 112.306 74.139 113.225 74.139H115.396V73.723C115.396 73.1337 115.231 72.6873 114.902 72.384C114.573 72.072 114.092 71.916 113.459 71.916C113.026 71.916 112.61 71.9897 112.211 72.137C111.812 72.2757 111.47 72.4707 111.184 72.722L110.768 72.033C111.115 71.7383 111.531 71.513 112.016 71.357C112.501 71.1923 113.013 71.11 113.55 71.11ZM113.225 77.337C113.745 77.337 114.191 77.22 114.564 76.986C114.937 76.7433 115.214 76.3967 115.396 75.946V74.828H113.251C112.081 74.828 111.496 75.2353 111.496 76.05C111.496 76.4487 111.648 76.765 111.951 76.999C112.254 77.2243 112.679 77.337 113.225 77.337ZM121.685 78.065C121.009 78.065 120.403 77.9177 119.865 77.623C119.337 77.3283 118.921 76.9167 118.617 76.388C118.314 75.8507 118.162 75.2483 118.162 74.581C118.162 73.9137 118.314 73.3157 118.617 72.787C118.921 72.2583 119.337 71.8467 119.865 71.552C120.403 71.2573 121.009 71.11 121.685 71.11C122.275 71.11 122.799 71.227 123.258 71.461C123.726 71.6863 124.095 72.02 124.363 72.462L123.674 72.93C123.449 72.592 123.163 72.3407 122.816 72.176C122.47 72.0027 122.093 71.916 121.685 71.916C121.191 71.916 120.745 72.0287 120.346 72.254C119.956 72.4707 119.649 72.7827 119.423 73.19C119.207 73.5973 119.098 74.061 119.098 74.581C119.098 75.1097 119.207 75.5777 119.423 75.985C119.649 76.3837 119.956 76.6957 120.346 76.921C120.745 77.1377 121.191 77.246 121.685 77.246C122.093 77.246 122.47 77.1637 122.816 76.999C123.163 76.8343 123.449 76.583 123.674 76.245L124.363 76.713C124.095 77.155 123.726 77.493 123.258 77.727C122.79 77.9523 122.266 78.065 121.685 78.065ZM129.854 77.584C129.68 77.74 129.464 77.8613 129.204 77.948C128.952 78.026 128.688 78.065 128.411 78.065C127.769 78.065 127.275 77.8917 126.929 77.545C126.582 77.1983 126.409 76.7087 126.409 76.076V71.942H125.187V71.162H126.409V69.667H127.332V71.162H129.412V71.942H127.332V76.024C127.332 76.4313 127.431 76.7433 127.631 76.96C127.839 77.168 128.133 77.272 128.515 77.272C128.705 77.272 128.887 77.2417 129.061 77.181C129.243 77.1203 129.399 77.0337 129.529 76.921L129.854 77.584ZM133.367 78.065C132.812 78.065 132.279 77.987 131.768 77.831C131.265 77.6663 130.871 77.4627 130.585 77.22L131.001 76.492C131.287 76.7173 131.647 76.9037 132.08 77.051C132.513 77.1897 132.964 77.259 133.432 77.259C134.056 77.259 134.515 77.1637 134.81 76.973C135.113 76.7737 135.265 76.4963 135.265 76.141C135.265 75.8897 135.183 75.6947 135.018 75.556C134.853 75.4087 134.645 75.3003 134.394 75.231C134.143 75.153 133.809 75.0793 133.393 75.01C132.838 74.906 132.392 74.802 132.054 74.698C131.716 74.5853 131.426 74.399 131.183 74.139C130.949 73.879 130.832 73.5193 130.832 73.06C130.832 72.488 131.07 72.02 131.547 71.656C132.024 71.292 132.687 71.11 133.536 71.11C133.978 71.11 134.42 71.1707 134.862 71.292C135.304 71.4047 135.668 71.5563 135.954 71.747L135.551 72.488C134.988 72.098 134.316 71.903 133.536 71.903C132.947 71.903 132.5 72.007 132.197 72.215C131.902 72.423 131.755 72.696 131.755 73.034C131.755 73.294 131.837 73.502 132.002 73.658C132.175 73.814 132.388 73.931 132.639 74.009C132.89 74.0783 133.237 74.152 133.679 74.23C134.225 74.334 134.663 74.438 134.992 74.542C135.321 74.646 135.603 74.8237 135.837 75.075C136.071 75.3263 136.188 75.673 136.188 76.115C136.188 76.713 135.937 77.1897 135.434 77.545C134.94 77.8917 134.251 78.065 133.367 78.065ZM147.043 71.162L143.624 78.819C143.346 79.4603 143.026 79.9153 142.662 80.184C142.298 80.4527 141.86 80.587 141.349 80.587C141.019 80.587 140.712 80.535 140.426 80.431C140.14 80.327 139.893 80.171 139.685 79.963L140.114 79.274C140.46 79.6207 140.876 79.794 141.362 79.794C141.674 79.794 141.938 79.7073 142.155 79.534C142.38 79.3607 142.588 79.066 142.779 78.65L143.078 77.987L140.023 71.162H140.985L143.559 76.973L146.133 71.162H147.043ZM150.947 78.065C150.289 78.065 149.695 77.9177 149.166 77.623C148.638 77.3197 148.222 76.9037 147.918 76.375C147.615 75.8463 147.463 75.2483 147.463 74.581C147.463 73.9137 147.615 73.3157 147.918 72.787C148.222 72.2583 148.638 71.8467 149.166 71.552C149.695 71.2573 150.289 71.11 150.947 71.11C151.606 71.11 152.2 71.2573 152.728 71.552C153.257 71.8467 153.669 72.2583 153.963 72.787C154.267 73.3157 154.418 73.9137 154.418 74.581C154.418 75.2483 154.267 75.8463 153.963 76.375C153.669 76.9037 153.257 77.3197 152.728 77.623C152.2 77.9177 151.606 78.065 150.947 78.065ZM150.947 77.246C151.433 77.246 151.866 77.1377 152.247 76.921C152.637 76.6957 152.941 76.3793 153.157 75.972C153.374 75.5647 153.482 75.101 153.482 74.581C153.482 74.061 153.374 73.5973 153.157 73.19C152.941 72.7827 152.637 72.4707 152.247 72.254C151.866 72.0287 151.433 71.916 150.947 71.916C150.462 71.916 150.024 72.0287 149.634 72.254C149.253 72.4707 148.95 72.7827 148.724 73.19C148.508 73.5973 148.399 74.061 148.399 74.581C148.399 75.101 148.508 75.5647 148.724 75.972C148.95 76.3793 149.253 76.6957 149.634 76.921C150.024 77.1377 150.462 77.246 150.947 77.246ZM162.465 71.162V78H161.581V76.752C161.338 77.168 161.004 77.493 160.58 77.727C160.155 77.9523 159.67 78.065 159.124 78.065C158.231 78.065 157.525 77.818 157.005 77.324C156.493 76.8213 156.238 76.089 156.238 75.127V71.162H157.161V75.036C157.161 75.7553 157.338 76.3013 157.694 76.674C158.049 77.0467 158.556 77.233 159.215 77.233C159.934 77.233 160.502 77.0163 160.918 76.583C161.334 76.141 161.542 75.53 161.542 74.75V71.162H162.465ZM165.934 72.501C166.15 72.0417 166.471 71.695 166.896 71.461C167.329 71.227 167.862 71.11 168.495 71.11V72.007L168.274 71.994C167.554 71.994 166.991 72.215 166.584 72.657C166.176 73.099 165.973 73.7187 165.973 74.516V78H165.05V71.162H165.934V72.501ZM177.193 71.11C177.834 71.11 178.415 71.2573 178.935 71.552C179.455 71.838 179.862 72.2453 180.157 72.774C180.451 73.3027 180.599 73.905 180.599 74.581C180.599 75.2657 180.451 75.8723 180.157 76.401C179.862 76.9297 179.455 77.3413 178.935 77.636C178.423 77.922 177.843 78.065 177.193 78.065C176.638 78.065 176.135 77.9523 175.685 77.727C175.243 77.493 174.879 77.155 174.593 76.713V80.522H173.67V71.162H174.554V72.514C174.831 72.0633 175.195 71.7167 175.646 71.474C176.105 71.2313 176.621 71.11 177.193 71.11ZM177.128 77.246C177.604 77.246 178.038 77.1377 178.428 76.921C178.818 76.6957 179.121 76.3793 179.338 75.972C179.563 75.5647 179.676 75.101 179.676 74.581C179.676 74.061 179.563 73.6017 179.338 73.203C179.121 72.7957 178.818 72.4793 178.428 72.254C178.038 72.0287 177.604 71.916 177.128 71.916C176.642 71.916 176.205 72.0287 175.815 72.254C175.433 72.4793 175.13 72.7957 174.905 73.203C174.688 73.6017 174.58 74.061 174.58 74.581C174.58 75.101 174.688 75.5647 174.905 75.972C175.13 76.3793 175.433 76.6957 175.815 76.921C176.205 77.1377 176.642 77.246 177.128 77.246ZM182.48 68.354H183.403V78H182.48V68.354ZM188.364 71.11C189.256 71.11 189.941 71.3353 190.418 71.786C190.894 72.228 191.133 72.8867 191.133 73.762V78H190.249V76.934C190.041 77.2893 189.733 77.5667 189.326 77.766C188.927 77.9653 188.45 78.065 187.896 78.065C187.133 78.065 186.526 77.883 186.076 77.519C185.625 77.155 185.4 76.674 185.4 76.076C185.4 75.4953 185.608 75.0273 186.024 74.672C186.448 74.3167 187.12 74.139 188.039 74.139H190.21V73.723C190.21 73.1337 190.045 72.6873 189.716 72.384C189.386 72.072 188.905 71.916 188.273 71.916C187.839 71.916 187.423 71.9897 187.025 72.137C186.626 72.2757 186.284 72.4707 185.998 72.722L185.582 72.033C185.928 71.7383 186.344 71.513 186.83 71.357C187.315 71.1923 187.826 71.11 188.364 71.11ZM188.039 77.337C188.559 77.337 189.005 77.22 189.378 76.986C189.75 76.7433 190.028 76.3967 190.21 75.946V74.828H188.065C186.895 74.828 186.31 75.2353 186.31 76.05C186.31 76.4487 186.461 76.765 186.765 76.999C187.068 77.2243 187.493 77.337 188.039 77.337ZM197.124 71.11C197.982 71.11 198.662 71.3613 199.165 71.864C199.676 72.358 199.932 73.0817 199.932 74.035V78H199.009V74.126C199.009 73.4153 198.831 72.8737 198.476 72.501C198.12 72.1283 197.613 71.942 196.955 71.942C196.218 71.942 195.633 72.163 195.2 72.605C194.775 73.0383 194.563 73.6407 194.563 74.412V78H193.64V71.162H194.524V72.423C194.775 72.007 195.122 71.6863 195.564 71.461C196.014 71.227 196.534 71.11 197.124 71.11ZM209.324 71.11C210.182 71.11 210.862 71.3613 211.365 71.864C211.876 72.358 212.132 73.0817 212.132 74.035V78H211.209V74.126C211.209 73.4153 211.031 72.8737 210.676 72.501C210.32 72.1283 209.813 71.942 209.155 71.942C208.418 71.942 207.833 72.163 207.4 72.605C206.975 73.0383 206.763 73.6407 206.763 74.412V78H205.84V68.354H206.763V72.358C207.014 71.9593 207.361 71.6517 207.803 71.435C208.245 71.2183 208.752 71.11 209.324 71.11ZM217.458 78.065C216.799 78.065 216.206 77.9177 215.677 77.623C215.148 77.3197 214.732 76.9037 214.429 76.375C214.126 75.8463 213.974 75.2483 213.974 74.581C213.974 73.9137 214.126 73.3157 214.429 72.787C214.732 72.2583 215.148 71.8467 215.677 71.552C216.206 71.2573 216.799 71.11 217.458 71.11C218.117 71.11 218.71 71.2573 219.239 71.552C219.768 71.8467 220.179 72.2583 220.474 72.787C220.777 73.3157 220.929 73.9137 220.929 74.581C220.929 75.2483 220.777 75.8463 220.474 76.375C220.179 76.9037 219.768 77.3197 219.239 77.623C218.71 77.9177 218.117 78.065 217.458 78.065ZM217.458 77.246C217.943 77.246 218.377 77.1377 218.758 76.921C219.148 76.6957 219.451 76.3793 219.668 75.972C219.885 75.5647 219.993 75.101 219.993 74.581C219.993 74.061 219.885 73.5973 219.668 73.19C219.451 72.7827 219.148 72.4707 218.758 72.254C218.377 72.0287 217.943 71.916 217.458 71.916C216.973 71.916 216.535 72.0287 216.145 72.254C215.764 72.4707 215.46 72.7827 215.235 73.19C215.018 73.5973 214.91 74.061 214.91 74.581C214.91 75.101 215.018 75.5647 215.235 75.972C215.46 76.3793 215.764 76.6957 216.145 76.921C216.535 77.1377 216.973 77.246 217.458 77.246ZM222.813 68.354H223.736V78H222.813V68.354ZM226.305 71.162H227.228V78H226.305V71.162ZM226.773 69.667C226.582 69.667 226.422 69.602 226.292 69.472C226.162 69.342 226.097 69.186 226.097 69.004C226.097 68.8307 226.162 68.679 226.292 68.549C226.422 68.419 226.582 68.354 226.773 68.354C226.963 68.354 227.124 68.419 227.254 68.549C227.384 68.6703 227.449 68.8177 227.449 68.991C227.449 69.1817 227.384 69.342 227.254 69.472C227.124 69.602 226.963 69.667 226.773 69.667ZM231.629 78.065C231.074 78.065 230.541 77.987 230.03 77.831C229.527 77.6663 229.133 77.4627 228.847 77.22L229.263 76.492C229.549 76.7173 229.908 76.9037 230.342 77.051C230.775 77.1897 231.226 77.259 231.694 77.259C232.318 77.259 232.777 77.1637 233.072 76.973C233.375 76.7737 233.527 76.4963 233.527 76.141C233.527 75.8897 233.444 75.6947 233.28 75.556C233.115 75.4087 232.907 75.3003 232.656 75.231C232.404 75.153 232.071 75.0793 231.655 75.01C231.1 74.906 230.654 74.802 230.316 74.698C229.978 74.5853 229.687 74.399 229.445 74.139C229.211 73.879 229.094 73.5193 229.094 73.06C229.094 72.488 229.332 72.02 229.809 71.656C230.285 71.292 230.948 71.11 231.798 71.11C232.24 71.11 232.682 71.1707 233.124 71.292C233.566 71.4047 233.93 71.5563 234.216 71.747L233.813 72.488C233.249 72.098 232.578 71.903 231.798 71.903C231.208 71.903 230.762 72.007 230.459 72.215C230.164 72.423 230.017 72.696 230.017 73.034C230.017 73.294 230.099 73.502 230.264 73.658C230.437 73.814 230.649 73.931 230.901 74.009C231.152 74.0783 231.499 74.152 231.941 74.23C232.487 74.334 232.924 74.438 233.254 74.542C233.583 74.646 233.865 74.8237 234.099 75.075C234.333 75.3263 234.45 75.673 234.45 76.115C234.45 76.713 234.198 77.1897 233.696 77.545C233.202 77.8917 232.513 78.065 231.629 78.065ZM239.757 77.584C239.584 77.74 239.367 77.8613 239.107 77.948C238.856 78.026 238.591 78.065 238.314 78.065C237.673 78.065 237.179 77.8917 236.832 77.545C236.485 77.1983 236.312 76.7087 236.312 76.076V71.942H235.09V71.162H236.312V69.667H237.235V71.162H239.315V71.942H237.235V76.024C237.235 76.4313 237.335 76.7433 237.534 76.96C237.742 77.168 238.037 77.272 238.418 77.272C238.609 77.272 238.791 77.2417 238.964 77.181C239.146 77.1203 239.302 77.0337 239.432 76.921L239.757 77.584ZM241.437 71.162H242.36V78H241.437V71.162ZM241.905 69.667C241.715 69.667 241.554 69.602 241.424 69.472C241.294 69.342 241.229 69.186 241.229 69.004C241.229 68.8307 241.294 68.679 241.424 68.549C241.554 68.419 241.715 68.354 241.905 68.354C242.096 68.354 242.256 68.419 242.386 68.549C242.516 68.6703 242.581 68.8177 242.581 68.991C242.581 69.1817 242.516 69.342 242.386 69.472C242.256 69.602 242.096 69.667 241.905 69.667ZM247.763 78.065C247.087 78.065 246.48 77.9177 245.943 77.623C245.414 77.3283 244.998 76.9167 244.695 76.388C244.391 75.8507 244.24 75.2483 244.24 74.581C244.24 73.9137 244.391 73.3157 244.695 72.787C244.998 72.2583 245.414 71.8467 245.943 71.552C246.48 71.2573 247.087 71.11 247.763 71.11C248.352 71.11 248.876 71.227 249.336 71.461C249.804 71.6863 250.172 72.02 250.441 72.462L249.752 72.93C249.526 72.592 249.24 72.3407 248.894 72.176C248.547 72.0027 248.17 71.916 247.763 71.916C247.269 71.916 246.822 72.0287 246.424 72.254C246.034 72.4707 245.726 72.7827 245.501 73.19C245.284 73.5973 245.176 74.061 245.176 74.581C245.176 75.1097 245.284 75.5777 245.501 75.985C245.726 76.3837 246.034 76.6957 246.424 76.921C246.822 77.1377 247.269 77.246 247.763 77.246C248.17 77.246 248.547 77.1637 248.894 76.999C249.24 76.8343 249.526 76.583 249.752 76.245L250.441 76.713C250.172 77.155 249.804 77.493 249.336 77.727C248.868 77.9523 248.343 78.065 247.763 78.065ZM254.646 71.11C255.538 71.11 256.223 71.3353 256.7 71.786C257.176 72.228 257.415 72.8867 257.415 73.762V78H256.531V76.934C256.323 77.2893 256.015 77.5667 255.608 77.766C255.209 77.9653 254.732 78.065 254.178 78.065C253.415 78.065 252.808 77.883 252.358 77.519C251.907 77.155 251.682 76.674 251.682 76.076C251.682 75.4953 251.89 75.0273 252.306 74.672C252.73 74.3167 253.402 74.139 254.321 74.139H256.492V73.723C256.492 73.1337 256.327 72.6873 255.998 72.384C255.668 72.072 255.187 71.916 254.555 71.916C254.121 71.916 253.705 71.9897 253.307 72.137C252.908 72.2757 252.566 72.4707 252.28 72.722L251.864 72.033C252.21 71.7383 252.626 71.513 253.112 71.357C253.597 71.1923 254.108 71.11 254.646 71.11ZM254.321 77.337C254.841 77.337 255.287 77.22 255.66 76.986C256.032 76.7433 256.31 76.3967 256.492 75.946V74.828H254.347C253.177 74.828 252.592 75.2353 252.592 76.05C252.592 76.4487 252.743 76.765 253.047 76.999C253.35 77.2243 253.775 77.337 254.321 77.337ZM259.922 68.354H260.845V78H259.922V68.354ZM263.413 68.354H264.336V78H263.413V68.354ZM272.65 71.162L269.231 78.819C268.954 79.4603 268.633 79.9153 268.269 80.184C267.905 80.4527 267.468 80.587 266.956 80.587C266.627 80.587 266.319 80.535 266.033 80.431C265.747 80.327 265.5 80.171 265.292 79.963L265.721 79.274C266.068 79.6207 266.484 79.794 266.969 79.794C267.281 79.794 267.546 79.7073 267.762 79.534C267.988 79.3607 268.196 79.066 268.386 78.65L268.685 77.987L265.63 71.162H266.592L269.166 76.973L271.74 71.162H272.65ZM273.597 78.065C273.406 78.065 273.241 77.9957 273.103 77.857C272.973 77.7183 272.908 77.5493 272.908 77.35C272.908 77.1507 272.973 76.986 273.103 76.856C273.241 76.7173 273.406 76.648 273.597 76.648C273.787 76.648 273.952 76.7173 274.091 76.856C274.229 76.986 274.299 77.1507 274.299 77.35C274.299 77.5493 274.229 77.7183 274.091 77.857C273.952 77.9957 273.787 78.065 273.597 78.065Z" fill="white"/>
<defs>
<filter id="filter0_d_1_425" x="0" y="0" width="316" height="109" filterUnits="userSpaceOnUse" color-interpolation-filters="sRGB">
<feFlood flood-opacity="0" result="BackgroundImageFix"/>
<feColorMatrix in="SourceAlpha" type="matrix" values="0 0 0 0 0 0 0 0 0 0 0 0 0 0 0 0 0 0 127 0" result="hardAlpha"/>
<feOffset dy="4"/>
<feGaussianBlur stdDeviation="4"/>
<feColorMatrix type="matrix" values="0 0 0 0 0 0 0 0 0 0 0 0 0 0 0 0 0 0 0.08 0"/>
<feBlend mode="normal" in2="BackgroundImageFix" result="effect1_dropShadow_1_425"/>
<feBlend mode="normal" in="SourceGraphic" in2="effect1_dropShadow_1_425" result="shape"/>
</filter>
</defs>
</svg>
